<svg width="136" height="183" xmlns="http://www.w3.org/2000/svg" xmlns:xlink="http://www.w3.org/1999/xlink" xml:space="preserve" overflow="hidden"><g transform="translate(-599 -49)"><path d="M44.8586 175.02 44.8586 163.2 33.1099 174.949 27.9832 169.893 44.8586 153.089 44.8586 143.548 33.1099 155.225 27.9832 150.17 44.8586 133.437 44.8586 96.9801C32.8251 96.4817 20.222 96.6953 12.5319 88.2932 4.77068 79.4639 5.76754 66.7183 13.6712 58.8147 22.7853 49.7005 37.2398 50.0565 45.9979 60.666 51.1958 67.0031 51.3382 81.8136 51.7654 90.0021L84.0209 90.0021 84.0209 20.934 72.1298 32.7539 67.0743 27.6984 87.6524 7.26283 108.017 27.6984 102.89 32.7539 91.2126 21.0052 91.2126 90.0733C103.673 90.7853 115.564 90.2157 123.468 98.7602 131.301 107.59 130.304 120.335 122.4 128.239 113.927 136.641 100.184 137.21 91.2838 127.74 84.5906 120.976 84.6618 106.379 84.3058 97.0513L51.9791 97.0513 51.9791 133.365 68.9257 150.241 63.8702 155.296 51.9791 143.476 51.9791 153.089 68.9257 169.822 63.8702 174.949 51.9791 163.129 51.9791 175.02 44.8586 175.02 44.8586 175.02ZM117.345 123.183C123.041 117.487 123.397 108.302 116.775 102.249 112.289 97.8346 98.6178 97.6921 91.355 97.2649 91.7822 104.67 91.7822 118.199 96.3393 122.756 102.463 129.307 111.577 128.951 117.345 123.183L117.345 123.183ZM39.5895 64.155C25.6335 49.8429 4.69948 70.8482 19.1539 84.8754 23.5686 89.1476 37.3822 89.3613 44.645 89.7885 44.2178 82.4545 44.1466 68.8545 39.5895 64.155Z" fill="#FFFFFF" fill-rule="evenodd" transform="matrix(1 0 0 1.00393 599 49)"/></g></svg>